<?xml version="1.0" encoding="UTF-8"?>
<!DOCTYPE svg PUBLIC "-//W3C//DTD SVG 1.1//EN" "http://www.w3.org/Graphics/SVG/1.1/DTD/svg11.dtd">
<!-- Creator: CorelDRAW X6 -->
<svg xmlns="http://www.w3.org/2000/svg" xml:space="preserve" width="70.9326mm" height="16.4789mm" version="1.1" style="shape-rendering:geometricPrecision; text-rendering:geometricPrecision; image-rendering:optimizeQuality; fill-rule:evenodd; clip-rule:evenodd"
viewBox="0 0 49856 11582"
 xmlns:xlink="http://www.w3.org/1999/xlink">
 <defs>
  <style type="text/css">
   <![CDATA[
    .fil0 {fill:rgba(255, 255, 255, 0.85);fill-rule:nonzero}
   ]]>
  </style>
 </defs>
 <g id="algoux-text-l1">
  <metadata id="CorelCorpID_0Corel-Layer"/>
  <path class="fil0" d="M1979 9134c-321,0 -622,-63 -901,-190 -347,-169 -613,-402 -799,-698 -186,-296 -279,-639 -279,-1028 0,-51 0,-101 0,-152 17,-76 25,-131 25,-165 76,-558 313,-994 710,-1307 321,-245 694,-368 1116,-368l3159 0 0 -355c0,-118 -17,-226 -51,-323 -34,-97 -101,-201 -203,-311 -101,-110 -222,-188 -362,-235 -140,-46 -328,-70 -565,-70l-3374 0 0 -1472 2892 0 520 0c178,0 315,0 412,0 97,0 239,13 425,38 414,68 734,159 958,273 224,114 429,281 615,501 186,220 330,503 431,850 42,144 74,285 95,425 21,140 32,328 32,564l0 228 0 3793 -4859 0zm3032 -2651l-2309 0c-211,0 -395,66 -552,197 -156,131 -235,281 -235,450 0,161 68,288 203,381l165 89c144,51 262,76 355,76l2372 0 0 -1193zm3476 2651l0 -9134 1827 0 0 9134 -1827 0zm10415 302c0,85 -6,171 -19,260 -13,89 -36,190 -70,309 -76,243 -159,436 -247,575 -89,137 -235,300 -438,484 -372,345 -939,518 -1700,518l-3869 0 0 -1370 3265 0c294,0 488,-9 581,-25 93,-17 194,-70 302,-163l101 -87c101,-110 178,-218 228,-328 25,-57 38,-95 38,-112l0 -364 -2366 0c-683,0 -1288,-250 -1810,-748 -550,-524 -877,-1205 -987,-2042 -25,-169 -38,-334 -38,-495 0,-161 19,-374 57,-641 38,-266 123,-554 254,-863 131,-309 296,-586 499,-831 617,-702 1347,-1053 2190,-1053l4028 0 0 6533 0 241 0 201zm-1827 -5504l-1592 0c-412,0 -768,173 -1068,520 -298,347 -448,791 -448,1332 0,144 13,300 38,469 161,947 708,1421 1643,1421l1427 0 0 -3742zm10580 4060c-330,423 -816,742 -1459,958 -643,216 -1421,323 -2334,323 -1108,-93 -1949,-461 -2524,-1104 -575,-643 -863,-1484 -863,-2525 0,-896 300,-1636 901,-2220 600,-584 1408,-935 2423,-1053 254,-25 495,-38 723,-38 989,0 1801,241 2436,723 634,482 1040,1146 1218,1992 34,135 59,296 76,482 17,186 25,351 25,495 0,381 -53,738 -159,1072 -106,334 -260,632 -463,894zm-2981 -4224c-152,-17 -271,-25 -355,-25 -533,0 -973,182 -1319,545 -347,364 -520,846 -520,1446l0 368c68,516 239,928 512,1237 271,309 626,497 1059,564 144,25 273,38 383,38 562,0 1004,-203 1328,-609 323,-406 486,-960 486,-1662 0,-516 -146,-945 -438,-1288 -292,-343 -670,-548 -1135,-615zm9743 5544c-1505,0 -2647,-290 -3425,-871 -778,-579 -1167,-1368 -1167,-2368l0 -6072 2106 0 0 5704c0,636 226,1129 679,1482 453,351 1114,526 1985,526 770,0 1330,-167 1681,-501 351,-336 527,-837 527,-1508l0 -5704 2093 0 0 6174c0,1042 -338,1816 -1015,2324 -727,543 -1882,814 -3463,814zm12787 -178l-2334 -3057 -2157 3057 -2715 0 3552 -4529 -3476 -4605 2727 0 2081 3032 2233 -3032 2651 0 -3501 4567 3590 4567 -2651 0z"/>
 </g>
</svg>
