<?xml version="1.0" encoding="UTF-8"?>
<svg xmlns="http://www.w3.org/2000/svg" viewBox="-220 -220 2405 1722">
  <g fill="#000000">
    <polygon points="0,641 382,472 667,412 540,641" />
    <polygon points="356,0 626,0 443,221 0,641" />
    <polygon points="626,0 0,641 559,322 896,0" />
    <polygon points="0,641 667,412 896,0" />
    <polygon points="0,641 382,810 667,870 540,641" />
    <polygon points="356,1282 626,1282 443,1061 0,641" />
    <polygon points="626,1282 0,641 559,960 896,1282" />
    <polygon points="0,641 667,870 896,1282" />
    <polygon points="356,1282 896,1282 1609,0 1069,0" />
    <polygon points="1965,641 1583,810 1297,870 1425,641" />
    <polygon points="1609,1282 1339,1282 1522,1061 1965,641" />
    <polygon points="1339,1282 1965,641 1406,960 1069,1282" />
    <polygon points="1965,641 1297,870 1069,1282" />
    <polygon points="1965,641 1583,472 1297,412 1425,641" />
    <polygon points="1609,0 1339,0 1522,221 1965,641" />
    <polygon points="1339,0 1965,641 1406,322 1069,0" />
    <polygon points="1965,641 1297,412 1069,0" />
  </g>
</svg>
